
<svg xmlns="http://www.w3.org/2000/svg" xmlns:xlink="http://www.w3.org/1999/xlink" width="500" zoomAndPan="magnify" viewBox="0 0 375 374.999991" height="500" preserveAspectRatio="xMidYMid meet" version="1.0"><defs><clipPath id="719e5c032f"><path d="M 37.5 3.332031 L 337.5 3.332031 L 337.5 375 L 37.5 375 Z M 37.5 3.332031 " clip-rule="nonzero"/></clipPath></defs><g clip-path="url(#719e5c032f)"><path fill="#630000" d="M 336.726562 25.4375 C 336.335938 25.199219 335.851562 25.191406 335.398438 25.25 C 332.121094 25.691406 329.910156 29.152344 326.652344 29.703125 C 326.824219 28.5625 327.285156 27.488281 327.742188 26.429688 C 330.621094 19.792969 333.605469 13.203125 336.695312 6.664062 C 337.160156 5.679688 337.515625 4.269531 336.59375 3.703125 C 336.035156 3.359375 335.269531 3.578125 334.792969 4.027344 C 334.316406 4.476562 334.054688 5.101562 333.785156 5.699219 C 332.042969 9.5625 329.527344 13.011719 327.03125 16.433594 C 325.46875 18.570312 323.894531 20.71875 321.949219 22.511719 C 319.636719 24.648438 316.839844 26.230469 314.632812 28.476562 C 313.234375 29.894531 312.101562 31.546875 310.769531 33.019531 C 307.8125 36.296875 303.859375 38.660156 299.574219 39.722656 C 288.757812 42.398438 277.664062 44.429688 266.75 46.675781 C 262.128906 47.628906 257.46875 48.59375 253.152344 50.496094 C 248.53125 52.535156 244.382812 55.648438 241.128906 59.511719 C 236.367188 65.171875 227.023438 63.78125 220.632812 67.507812 C 218.953125 68.488281 217.375 69.683594 215.554688 70.367188 C 213.578125 71.109375 211.425781 71.210938 209.332031 71.488281 C 201.660156 72.515625 194.355469 76.144531 188.90625 81.640625 C 188.070312 77.476562 190.101562 73.265625 189.429688 69.070312 C 189.359375 68.628906 189.25 68.175781 188.96875 67.828125 C 188.742188 67.542969 188.414062 67.34375 188.203125 67.046875 C 187.894531 66.609375 187.882812 66.042969 187.871094 65.511719 C 187.753906 60.328125 186.722656 55.171875 184.839844 50.339844 C 184.417969 49.265625 183.953125 48.199219 183.308594 47.242188 C 182.804688 46.503906 182.203125 45.835938 181.558594 45.214844 C 177.050781 40.839844 169.296875 38.605469 163.019531 38.542969 C 157.324219 38.488281 151.667969 41.253906 148.214844 45.785156 C 143.625 51.808594 143.191406 59.910156 142.800781 67.472656 C 142.777344 67.984375 142.746094 68.5 142.601562 68.992188 C 142.429688 69.582031 142.09375 70.109375 141.855469 70.671875 C 141.074219 72.527344 141.347656 74.644531 141.792969 76.605469 C 142.386719 79.234375 143.257812 81.800781 144.386719 84.246094 C 144.621094 84.75 144.894531 85.277344 145.394531 85.519531 C 145.757812 85.699219 146.1875 85.6875 146.570312 85.816406 C 147.542969 86.132812 148.035156 87.242188 148.09375 88.261719 C 148.152344 89.28125 147.894531 90.296875 147.90625 91.316406 C 147.933594 93.285156 148.949219 95.078125 149.785156 96.855469 C 150.621094 98.636719 151.304688 100.679688 150.648438 102.535156 C 149.929688 104.5625 147.75 105.914062 147.394531 108.035156 C 145.828125 109.386719 143.925781 110.707031 142.359375 112.0625 C 141.355469 112.925781 140.351562 113.796875 139.441406 114.757812 C 138.589844 115.660156 137.824219 116.636719 137.058594 117.609375 L 130.226562 126.332031 C 128.191406 128.929688 125.40625 133.511719 124.042969 136.515625 C 124.027344 136.558594 124.007812 136.597656 123.988281 136.640625 C 120.925781 143.40625 119.410156 150.757812 119.472656 158.183594 C 119.527344 165.066406 119.058594 171.957031 118.066406 178.769531 C 117.386719 183.453125 117.976562 188.824219 115.476562 192.839844 C 114.578125 194.289062 113.292969 195.449219 112.050781 196.617188 C 105.214844 203.066406 99.230469 210.414062 94.296875 218.414062 C 90.113281 225.195312 83.371094 230.539062 79.773438 237.652344 C 78.785156 239.597656 77.929688 241.628906 76.640625 243.390625 C 75.851562 244.464844 74.90625 245.429688 74.261719 246.597656 C 73.429688 248.113281 73.15625 249.867188 72.855469 251.570312 C 72.109375 255.765625 71.078125 259.90625 69.773438 263.960938 C 67.5 271.035156 64.398438 277.988281 63.433594 285.351562 C 63.136719 287.628906 63.011719 289.929688 62.886719 292.222656 C 62.09375 306.902344 61.300781 321.585938 60.507812 336.265625 C 60.886719 336.574219 60.34375 337.148438 59.980469 337.476562 C 59.617188 337.804688 59.125 337.945312 58.722656 338.21875 C 57.613281 338.96875 57.382812 340.507812 56.53125 341.542969 C 55.363281 342.960938 53.207031 343.222656 51.992188 344.601562 C 50.988281 345.746094 50.851562 347.375 50.519531 348.859375 C 49.277344 354.410156 44.914062 358.628906 40.804688 362.558594 C 39.625 363.6875 38.398438 364.90625 38.003906 366.488281 C 37.496094 368.515625 38.46875 370.605469 38.542969 372.695312 C 38.554688 373.054688 38.546875 373.4375 38.742188 373.734375 C 38.789062 373.800781 38.839844 373.859375 38.898438 373.914062 C 39.769531 374.707031 41 374.980469 42.175781 374.960938 L 58.1875 374.710938 C 59.554688 374.691406 60.945312 374.664062 62.238281 374.21875 C 64.347656 373.492188 65.9375 371.742188 67.921875 370.722656 C 70.3125 369.496094 73.109375 369.402344 75.695312 368.671875 C 78.28125 367.9375 80.949219 366.128906 81.175781 363.453125 C 81.324219 361.730469 80.421875 360.121094 79.691406 358.554688 C 77.714844 354.308594 76.84375 349.546875 77.195312 344.875 C 77.253906 344.085938 77.339844 343.238281 76.953125 342.546875 C 76.660156 342.027344 76.140625 341.667969 75.808594 341.175781 C 75.246094 340.351562 75.273438 339.273438 75.363281 338.285156 C 76.488281 326.28125 84.3125 316.109375 88.746094 304.898438 C 92.972656 294.210938 91.824219 281.957031 93.996094 270.671875 C 94.269531 269.230469 94.59375 267.78125 95.28125 266.484375 C 95.363281 266.589844 95.324219 266.515625 95.28125 266.390625 C 95.242188 266.261719 95.351562 266.140625 95.453125 266.054688 C 100.097656 262.011719 104.746094 257.964844 109.390625 253.921875 C 110.582031 252.886719 111.855469 251.808594 113.410156 251.53125 C 116.25 251.023438 118.667969 253.257812 121.265625 254.625 C 122.578125 255.3125 123.855469 257.113281 124.121094 258.574219 C 125.898438 268.316406 127.324219 278.125 128.394531 287.972656 C 128.550781 289.417969 128.699219 290.875 128.542969 292.320312 C 128.144531 295.980469 125.808594 299.507812 126.664062 303.089844 C 120.605469 303.320312 114.636719 307.789062 113.105469 313.652344 C 112.578125 315.675781 112.5 317.792969 112.574219 319.882812 C 112.636719 321.648438 112.808594 323.433594 113.441406 325.085938 C 113.980469 326.488281 114.835938 327.75 115.730469 328.960938 C 118.027344 332.082031 120.621094 334.988281 123.457031 337.628906 C 122.007812 341.40625 121.429688 346.128906 122.726562 349.960938 C 123.585938 352.515625 124.949219 354.871094 126.632812 356.980469 C 128.128906 358.855469 130.382812 359.960938 132.78125 359.960938 L 146.410156 359.960938 C 148.6875 359.960938 150.867188 358.984375 152.335938 357.242188 C 153.417969 355.964844 154.363281 354.601562 155.09375 353.027344 C 157.488281 347.875 156.820312 341.433594 153.421875 336.882812 C 156.511719 333.238281 159.867188 329.078125 161.71875 324.675781 C 163.566406 320.269531 164.023438 315.039062 161.824219 310.800781 C 160.824219 308.875 159.34375 307.253906 157.878906 305.65625 C 157.742188 304.371094 157.347656 303.253906 157.210938 301.964844 C 157.066406 300.570312 156.914062 299.152344 156.371094 297.855469 C 155.140625 294.914062 152.164062 293.136719 149.339844 291.671875 C 147.683594 290.816406 145.875 288.652344 145.214844 286.90625 C 144.796875 285.804688 144.082031 284.664062 143.996094 283.582031 C 143.601562 278.617188 143.203125 273.652344 142.804688 268.691406 C 142.671875 267.03125 142.539062 265.363281 142.589844 263.699219 C 142.671875 261.066406 143.207031 258.476562 143.566406 255.867188 C 144.351562 250.164062 144.277344 244.339844 143.34375 238.65625 C 143.246094 238.066406 143.144531 237.453125 143.304688 236.875 C 143.464844 236.308594 143.863281 235.84375 144.25 235.398438 L 149.285156 229.625 C 150.464844 228.277344 152.894531 227.179688 154.6875 227.160156 C 162.15625 227.078125 169.839844 230.414062 176.921875 228.011719 C 178.679688 227.414062 180.347656 226.476562 182.195312 226.308594 C 184.039062 226.140625 186.191406 227.09375 186.523438 228.917969 C 190.570312 231.207031 193.375 234.847656 196.273438 238.484375 C 198.636719 241.453125 201.003906 244.421875 203.367188 247.390625 C 204.707031 249.074219 206.367188 250.917969 208.519531 250.867188 C 209.769531 250.839844 210.902344 250.15625 211.9375 249.457031 C 214.804688 247.511719 217.464844 245.257812 219.851562 242.746094 C 224.84375 245.582031 229.863281 248.21875 234.851562 251.054688 C 236.386719 251.925781 237.9375 252.808594 239.210938 254.03125 C 241.667969 256.386719 242.867188 259.804688 243.253906 263.1875 C 243.640625 266.570312 243.300781 269.988281 243.132812 273.386719 C 242.929688 277.566406 242.984375 281.761719 243.300781 285.9375 C 243.582031 289.644531 244.078125 293.367188 245.296875 296.882812 C 246.167969 299.398438 247.398438 301.769531 248.511719 304.1875 C 253.105469 314.1875 255.683594 325.109375 256.035156 336.109375 C 256.191406 340.90625 253.75 345.511719 253.460938 350.300781 C 253.359375 352.011719 253.652344 353.742188 253.386719 355.433594 C 253 357.917969 251.4375 360.171875 251.445312 362.6875 C 251.445312 363.628906 251.722656 364.636719 252.472656 365.203125 C 252.949219 365.558594 253.554688 365.691406 254.136719 365.820312 C 256.941406 366.429688 259.90625 367.238281 261.796875 369.398438 C 262.3125 369.984375 262.730469 370.65625 263.300781 371.183594 C 264.625 372.40625 266.546875 372.679688 268.339844 372.847656 C 274.128906 373.378906 279.964844 373.363281 285.753906 372.820312 C 287.625 372.644531 289.878906 372.113281 290.425781 370.316406 C 290.59375 369.765625 290.5625 369.175781 290.527344 368.601562 C 290.292969 364.941406 289.816406 361.058594 287.503906 358.210938 C 285.898438 356.226562 283.566406 354.960938 281.859375 353.0625 C 279.714844 350.679688 278.722656 347.5 277.8125 344.421875 C 277.402344 343.035156 276.976562 341.609375 276.074219 340.476562 C 275.621094 339.910156 275.0625 339.4375 274.617188 338.867188 C 273.554688 337.527344 273.152344 335.730469 271.9375 334.59375 C 271.644531 333.757812 271.398438 333.054688 271.109375 332.21875 C 271.480469 329.125 271.40625 325.835938 271.441406 322.71875 C 271.472656 319.695312 271.34375 316.671875 271.3125 313.644531 C 271.238281 306.855469 271.652344 300.066406 272.0625 293.289062 C 272.820312 280.816406 270.976562 268.339844 266.816406 256.554688 C 265.019531 251.460938 263.933594 246.179688 264.027344 240.707031 C 264.0625 238.640625 263.746094 236.570312 262.898438 234.683594 C 258.878906 225.746094 250.976562 219.5625 246.25 210.980469 C 243.097656 205.257812 236.257812 202.3125 232.386719 197.050781 C 231.320312 195.601562 230.359375 194.078125 229.226562 192.679688 C 225.542969 188.132812 219.980469 184.816406 218.171875 179.253906 C 217.917969 178.46875 217.746094 177.652344 217.351562 176.929688 C 216.023438 174.496094 212.816406 173.980469 210.058594 173.738281 C 209.925781 173.308594 209.15625 173.339844 208.71875 173.246094 C 208.132812 173.121094 208.019531 172.34375 208.039062 171.746094 C 208.214844 166.3125 208.496094 160.882812 208.890625 155.460938 C 209.214844 150.988281 209.613281 146.519531 209.632812 142.035156 C 209.65625 137.371094 209.273438 132.714844 208.890625 128.066406 C 208.03125 117.644531 212.066406 108.054688 212.992188 97.636719 C 214.332031 96.5 216.15625 96.671875 217.859375 96.226562 C 224.335938 94.53125 229.394531 89.648438 234.914062 85.859375 C 241.089844 81.621094 248.035156 78.664062 254.929688 75.738281 C 268.914062 69.796875 282.367188 62.414062 295.140625 54.191406 C 296.546875 53.289062 297.957031 52.394531 299.417969 51.59375 C 301.125 50.660156 302.898438 49.855469 304.671875 49.046875 C 307.734375 47.65625 310.800781 46.261719 313.863281 44.871094 C 315.554688 44.101562 317.238281 43.96875 319.015625 43.421875 C 323.996094 41.890625 326.675781 36.527344 331 33.625 C 332.328125 32.730469 333.816406 32.070312 335.085938 31.09375 C 336.355469 30.117188 337.433594 28.699219 337.460938 27.097656 C 337.464844 26.46875 337.265625 25.773438 336.726562 25.4375 Z M 143.109375 315.816406 C 143.316406 315.660156 143.472656 315.445312 143.6875 315.296875 C 144.265625 314.894531 145.066406 315.085938 145.683594 315.425781 C 146.300781 315.761719 146.863281 316.234375 147.546875 316.398438 C 148.601562 316.644531 149.714844 316.070312 150.40625 315.238281 C 151.097656 314.40625 151.457031 313.351562 151.804688 312.324219 C 152.980469 312.820312 153.847656 313.898438 154.308594 315.089844 C 154.773438 316.28125 154.871094 317.582031 154.847656 318.859375 C 154.824219 320.066406 154.695312 321.28125 154.308594 322.421875 C 153.671875 324.296875 152.378906 325.863281 151.109375 327.382812 C 150.390625 328.246094 149.671875 329.109375 148.949219 329.972656 C 146.160156 327.15625 142.0625 325.765625 138.105469 326.058594 C 134.148438 326.347656 130.382812 328.25 127.609375 331.085938 C 125.839844 328.855469 124.066406 326.625 122.296875 324.390625 C 121.542969 323.441406 120.777344 322.472656 120.316406 321.347656 C 119.417969 319.167969 119.8125 316.558594 121.140625 314.613281 C 122.199219 313.058594 124.203125 311.410156 126.128906 311.113281 C 127.320312 310.929688 127.273438 311.4375 127.917969 312.398438 C 128.519531 313.296875 129.246094 314.109375 130.066406 314.8125 C 130.808594 315.441406 131.996094 315.953125 132.664062 315.246094 C 132.835938 315.066406 132.941406 314.824219 133.132812 314.664062 C 133.601562 314.269531 134.3125 314.519531 134.851562 314.816406 C 135.835938 315.351562 137.050781 315.984375 138 315.386719 C 138.253906 315.230469 138.460938 314.992188 138.742188 314.882812 C 139.429688 314.617188 140.109375 315.230469 140.722656 315.640625 C 141.429688 316.113281 142.433594 316.335938 143.109375 315.816406 Z M 143.109375 315.816406 " fill-opacity="1" fill-rule="nonzero"/></g></svg>