<svg xmlns="http://www.w3.org/2000/svg" xmlns:xlink="http://www.w3.org/1999/xlink" width="400" zoomAndPan="magnify" viewBox="0 0 300 251.250001" height="335" preserveAspectRatio="xMidYMid meet" version="1.0"><defs><clipPath id="11e90fc1db"><path d="M 56.609375 6.8125 L 258.449219 6.8125 L 258.449219 208.652344 L 56.609375 208.652344 Z M 56.609375 6.8125 " clip-rule="nonzero"/></clipPath><clipPath id="ef15b79e36"><path d="M 157.527344 6.8125 C 101.792969 6.8125 56.609375 51.996094 56.609375 107.734375 C 56.609375 163.46875 101.792969 208.652344 157.527344 208.652344 C 213.265625 208.652344 258.449219 163.46875 258.449219 107.734375 C 258.449219 51.996094 213.265625 6.8125 157.527344 6.8125 Z M 157.527344 6.8125 " clip-rule="nonzero"/></clipPath><clipPath id="c524c5b2d3"><path d="M 0.445312 117 L 176 117 L 176 250.503906 L 0.445312 250.503906 Z M 0.445312 117 " clip-rule="nonzero"/></clipPath><clipPath id="22d8bfe9d1"><path d="M 209 63 L 299.550781 63 L 299.550781 140 L 209 140 Z M 209 63 " clip-rule="nonzero"/></clipPath><clipPath id="9d6cb36f96"><path d="M 175 31 L 299.550781 31 L 299.550781 181 L 175 181 Z M 175 31 " clip-rule="nonzero"/></clipPath><clipPath id="dd0b89b384"><path d="M 222 73 L 299.550781 73 L 299.550781 137 L 222 137 Z M 222 73 " clip-rule="nonzero"/></clipPath></defs><g clip-path="url(#11e90fc1db)"><g clip-path="url(#ef15b79e36)"><path fill="#630000" d="M 56.609375 6.8125 L 258.449219 6.8125 L 258.449219 208.652344 L 56.609375 208.652344 Z M 56.609375 6.8125 " fill-opacity="1" fill-rule="nonzero"/></g></g><path fill="#000000" d="M 176.59375 79.8125 C 176.34375 80.421875 171.714844 79.328125 171.164062 79.234375 C 167.816406 78.65625 164.617188 77.914062 161.585938 76.324219 C 158.292969 74.59375 155.265625 72.386719 151.894531 70.796875 C 145.089844 67.628906 137.855469 65.152344 130.371094 64.566406 C 122.894531 63.988281 115.101562 65.40625 108.804688 69.492188 C 107.078125 70.601562 105.449219 71.929688 103.53125 72.601562 C 98.660156 74.332031 93.480469 71.683594 88.511719 70.308594 C 79.96875 67.96875 70.429688 69.628906 63.191406 74.71875 C 61.066406 76.214844 58.261719 74.117188 59.109375 71.667969 C 60.828125 66.65625 62.09375 61.492188 62.859375 56.25 C 63.199219 53.949219 63.773438 51.695312 64.636719 49.527344 C 66.664062 44.433594 68.8125 40.441406 72.003906 35.050781 C 74.457031 32.074219 76.914062 29.101562 79.363281 26.128906 C 80.695312 24.523438 82.234375 22.800781 84.3125 22.628906 C 85.550781 22.515625 86.761719 23.007812 87.914062 23.503906 C 90.433594 24.597656 92.925781 25.765625 95.367188 27.015625 C 96 27.339844 96.6875 27.734375 96.914062 28.40625 C 97.050781 28.808594 96.992188 29.261719 97.128906 29.664062 C 97.292969 30.210938 97.757812 30.597656 98.226562 30.929688 C 99.953125 32.203125 101.90625 33.160156 103.957031 33.769531 C 104.566406 35.105469 106.011719 35.941406 107.535156 35.292969 C 108.78125 37.167969 111.222656 37.414062 113.117188 37.492188 C 112.636719 38.511719 113.226562 39.421875 114.050781 39.777344 C 115.101562 40.238281 116.308594 39.929688 117.414062 39.554688 C 118.511719 39.199219 119.679688 38.796875 120.792969 39.097656 C 121.394531 39.265625 121.929688 39.621094 122.539062 39.683594 C 123.597656 39.777344 124.496094 38.988281 125.253906 38.257812 C 127.679688 35.917969 130.101562 33.585938 132.527344 31.246094 C 133.238281 30.566406 133.972656 29.816406 134.144531 28.851562 C 134.238281 28.390625 134.183594 27.925781 134.074219 27.464844 C 133.695312 25.902344 133.015625 24.429688 132.171875 23.0625 L 125.988281 12.902344 C 124.558594 10.550781 123.058594 8.117188 120.761719 6.582031 C 118.527344 5.097656 115.769531 4.613281 113.117188 4.179688 L 93 0.875 C 90.929688 0.527344 88.84375 0.257812 86.761719 0.132812 C 84.738281 0.0117188 82.671875 0.0585938 80.75 0.691406 C 77.609375 1.726562 75.199219 4.210938 72.917969 6.613281 C 68.566406 11.167969 64.226562 15.738281 60.175781 20.59375 C 44.46875 35.316406 28.519531 50.308594 17.78125 68.988281 C 14.496094 74.6875 11.714844 80.699219 7.925781 86.082031 C 5.839844 89.046875 3.417969 91.863281 2.027344 95.207031 C 0.675781 98.433594 0.457031 102.410156 2.601562 105.867188 C 2.761719 106.128906 2.972656 106.355469 3.210938 106.546875 C 6.363281 109.078125 9.960938 110.964844 13.609375 112.683594 C 22.628906 116.953125 32.0625 120.328125 41.726562 122.757812 C 46.023438 123.839844 50.375 124.734375 54.734375 125.585938 C 67.28125 128.054688 80.5625 130.171875 92.621094 125.917969 C 99.261719 123.578125 105.292969 119.378906 111.816406 117.8125 C 125.523438 112.953125 141.640625 123.222656 150.246094 133.273438 C 152.210938 135.566406 154.398438 139.582031 155.308594 143.210938 L 171.390625 135.019531 C 170.554688 132.433594 170.453125 129.753906 170.152344 127.058594 C 168.367188 111.101562 170.609375 94.710938 176.59375 79.8125 Z M 97.378906 24.777344 C 95.050781 21.464844 89.175781 21.597656 86.074219 18.847656 C 84.855469 17.773438 84.164062 16.316406 83.484375 14.894531 C 83.007812 13.921875 82.550781 12.949219 82.085938 11.976562 C 84.265625 13.375 87.328125 14.054688 90.171875 14.933594 C 93.015625 15.828125 95.902344 17.132812 96.984375 19.589844 C 97.6875 21.15625 97.539062 23.007812 97.378906 24.777344 Z M 109.785156 32.226562 C 109.675781 32.375 109.523438 32.527344 109.34375 32.589844 C 109.152344 32.652344 108.949219 32.597656 108.773438 32.542969 C 106.816406 31.980469 104.882812 31.363281 102.972656 30.683594 C 102.789062 30.082031 103.640625 29.585938 104.3125 29.394531 C 104.984375 29.214844 105.84375 28.792969 105.75 28.171875 C 105.71875 27.925781 105.523438 27.742188 105.355469 27.578125 C 104.304688 26.542969 103.4375 25.339844 102.898438 23.964844 C 102.261719 22.34375 102.101562 20.515625 101.351562 18.941406 C 100.570312 17.320312 99.148438 16.039062 97.421875 15.375 C 99.464844 15.992188 101.035156 16.617188 102.601562 17.234375 C 104.921875 18.160156 107.417969 19.234375 108.386719 21.449219 C 109.28125 23.464844 108.671875 25.964844 109.335938 28.082031 C 109.769531 29.441406 110.679688 30.9375 109.785156 32.226562 Z M 114.816406 35.019531 C 113.535156 35.429688 112.050781 35.144531 110.457031 34.726562 C 112.476562 34.171875 113.355469 31.71875 113.261719 29.617188 C 113.164062 27.523438 112.414062 25.464844 112.535156 23.363281 C 112.582031 22.492188 112.785156 21.628906 112.722656 20.761719 C 112.542969 18.585938 110.734375 16.769531 110.695312 14.59375 C 110.695312 14.339844 110.71875 14.0625 110.859375 13.859375 C 111.058594 13.597656 111.386719 13.496094 111.710938 13.496094 C 112.605469 13.484375 113.402344 14.085938 113.960938 14.789062 C 114.523438 15.488281 114.910156 16.308594 115.445312 17.027344 C 115.921875 17.660156 116.527344 18.214844 116.84375 18.933594 C 117.113281 19.550781 117.144531 20.230469 117.175781 20.894531 C 117.328125 23.828125 117.476562 26.769531 117.625 29.695312 C 117.675781 30.542969 117.714844 31.394531 117.492188 32.195312 C 117.144531 33.507812 116.101562 34.597656 114.816406 35.019531 Z M 123.953125 11.296875 C 126.375 15.019531 128.554688 18.910156 130.441406 22.933594 C 131.066406 24.246094 131.65625 25.632812 131.671875 27.085938 C 131.671875 28.867188 130.796875 30.542969 129.589844 31.839844 C 128.398438 33.144531 126.890625 34.125 125.007812 34.835938 C 125.773438 32.820312 128.035156 31.394531 128.058594 29.238281 C 128.058594 28.511719 127.796875 27.8125 127.535156 27.125 C 126.121094 23.449219 124.710938 19.757812 123.289062 16.0625 C 122.972656 15.234375 122.640625 14.371094 122.664062 13.476562 C 122.679688 12.585938 123.128906 11.636719 123.953125 11.296875 Z M 119.910156 14.253906 C 120.816406 14.863281 121.15625 16 121.433594 17.042969 C 122.324219 20.429688 123.21875 23.796875 124.109375 27.171875 C 124.78125 29.75 125.363281 32.789062 123.628906 34.804688 C 122.269531 36.386719 119.828125 36.679688 117.246094 36.195312 C 118.835938 35.269531 119.726562 33.445312 119.988281 31.632812 C 120.238281 29.816406 119.941406 27.972656 119.648438 26.152344 C 119.125 22.953125 118.605469 19.742188 118.085938 16.546875 C 117.996094 16.039062 117.925781 15.519531 118.046875 15.011719 C 118.164062 14.515625 118.566406 14.054688 119.078125 14 C 119.371094 13.976562 119.664062 14.085938 119.910156 14.253906 Z M 88.285156 3.089844 C 92.042969 2.96875 95.746094 3.648438 99.394531 4.335938 C 103.949219 5.183594 108.523438 6.039062 113.085938 6.882812 C 115.019531 7.238281 117.066406 7.652344 118.441406 8.957031 C 116.867188 9.058594 115.769531 11.226562 114.175781 11.824219 C 113.496094 12.078125 112.761719 12.03125 112.042969 12.078125 C 110.15625 12.207031 108.300781 13.058594 106.984375 14.402344 C 106.652344 14.75 106.34375 15.121094 105.917969 15.367188 C 105.0625 15.859375 103.980469 15.675781 103.144531 15.242188 C 102.308594 14.808594 101.628906 14.160156 100.800781 13.707031 C 98.011719 12.179688 94.269531 13.152344 91.261719 12.046875 C 90.140625 11.628906 89.160156 10.941406 88.070312 10.480469 C 86.332031 9.730469 84.34375 9.570312 82.472656 9.167969 C 80.59375 8.757812 78.667969 8.03125 77.625 6.527344 C 80.617188 4.203125 84.519531 3.207031 88.285156 3.089844 Z M 19.144531 102.5625 C 17.691406 103.203125 16.269531 104.144531 14.683594 104.109375 C 12.226562 104.070312 10.484375 101.800781 9.117188 99.761719 C 8.382812 98.679688 7.648438 97.546875 7.378906 96.25 C 6.828125 93.5 8.574219 90.882812 10.191406 88.582031 C 14.589844 82.277344 18.585938 75.699219 22.128906 68.882812 C 23.636719 65.992188 25.226562 63.371094 26.9375 60.914062 C 28.074219 57.871094 29.625 54.960938 31.464844 52.320312 C 37.117188 44.191406 45.1875 38.117188 52.523438 31 C 51.636719 32.101562 50.808594 33.230469 50.019531 34.394531 C 50.597656 33.863281 51.1875 33.363281 51.789062 32.898438 C 60.710938 25.980469 65.242188 19.378906 75.214844 9.953125 C 78.273438 13.390625 81.066406 15.613281 79.1875 19.328125 C 76.511719 24.628906 71.148438 28.042969 67.886719 33.007812 C 64.816406 37.699219 63.835938 43.421875 61.640625 48.578125 C 60.292969 51.78125 58.46875 54.816406 57.75 58.210938 C 57 61.785156 57.550781 65.5 57.292969 69.152344 C 56.992188 73.34375 55.539062 77.558594 52.601562 80.554688 C 49.539062 83.695312 45.210938 85.222656 41.011719 86.460938 C 36.808594 87.703125 32.441406 88.8125 28.875 91.347656 C 25.3125 93.902344 22.683594 98.339844 23.613281 102.757812 C 22.484375 101.636719 20.597656 101.914062 19.144531 102.5625 Z M 54.789062 83.007812 C 51.109375 89.355469 45.242188 94.1875 38.5 96.347656 C 34.21875 97.707031 29.378906 98.164062 26.085938 101.210938 C 27.917969 97.546875 30.640625 94.148438 34.394531 92.527344 C 36.121094 91.785156 37.992188 91.445312 39.800781 90.921875 C 45.257812 89.347656 50.066406 86.152344 54.789062 83.007812 Z M 110.867188 113.324219 C 98.5 123.539062 81.5 127.894531 65.765625 124.867188 C 61.230469 123.996094 56.832031 122.558594 52.453125 121.121094 C 41.878906 117.65625 31.148438 114.121094 22.019531 107.78125 C 28.785156 107.480469 34.804688 103.644531 40.734375 100.363281 C 46.664062 97.074219 53.484375 94.164062 60.046875 95.839844 C 67.976562 97.863281 73.730469 106.183594 81.910156 106.332031 C 77.515625 107.558594 73.109375 108.785156 68.703125 109.976562 C 65.496094 110.839844 62.195312 111.703125 58.894531 111.316406 C 66.53125 113.378906 74.679688 113.488281 82.371094 111.621094 C 86.777344 110.554688 91.007812 108.855469 95.382812 107.660156 C 99.757812 106.46875 104.398438 105.773438 108.820312 106.769531 C 110.046875 107.035156 112.832031 107.394531 113.09375 109.550781 C 113.277344 111.070312 112.042969 112.34375 110.867188 113.324219 Z M 114.515625 98.171875 C 112.148438 99.289062 110.171875 101.234375 107.652344 101.890625 C 105.167969 102.539062 102.550781 101.832031 99.988281 101.769531 C 93.976562 101.628906 88.070312 104.988281 82.179688 103.785156 C 77.285156 102.796875 73.589844 98.890625 70.035156 95.375 C 66.476562 91.855469 62.1875 88.335938 57.1875 88.460938 C 59.535156 86.421875 61.886719 84.398438 64.234375 82.359375 C 64.265625 82.335938 64.296875 82.304688 64.328125 82.277344 C 63.5 79.679688 64.214844 76.949219 65.84375 76.199219 C 66.207031 77.382812 66.75 78.5625 67.429688 79.6875 C 68.703125 78.679688 70.027344 77.757812 71.449219 76.996094 C 78.113281 73.4375 86.390625 73.921875 93.417969 76.695312 C 95.210938 77.402344 96.976562 78.253906 98.875 78.53125 C 100.671875 78.800781 102.496094 78.53125 104.3125 78.507812 C 113.511719 78.363281 122.378906 85.03125 124.828125 93.910156 C 124.542969 93.515625 126.5 97.066406 127.449219 100.851562 C 124.316406 97.320312 118.789062 96.171875 114.515625 98.171875 Z M 114.515625 98.171875 " fill-opacity="1" fill-rule="nonzero"/><path fill="#000000" d="M 54.789062 83.007812 C 51.109375 89.355469 45.242188 94.1875 38.5 96.347656 C 34.21875 97.707031 29.378906 98.164062 26.085938 101.210938 C 27.917969 97.546875 30.640625 94.148438 34.394531 92.527344 C 36.121094 91.785156 37.992188 91.445312 39.800781 90.921875 C 45.257812 89.347656 50.066406 86.152344 54.789062 83.007812 Z M 54.789062 83.007812 " fill-opacity="1" fill-rule="nonzero"/><path fill="#000000" d="M 79.1875 19.328125 C 76.511719 24.628906 71.148438 28.042969 67.886719 33.007812 C 64.816406 37.699219 63.835938 43.421875 61.644531 48.578125 C 60.292969 51.78125 58.46875 54.816406 57.75 58.210938 C 57 61.785156 57.550781 65.5 57.292969 69.152344 C 56.992188 73.34375 55.539062 77.558594 52.601562 80.554688 C 49.539062 83.695312 45.210938 85.222656 41.011719 86.460938 C 36.808594 87.703125 32.441406 88.8125 28.875 91.347656 C 25.3125 93.902344 22.683594 98.339844 23.613281 102.757812 C 22.484375 101.636719 20.597656 101.914062 19.144531 102.5625 C 17.691406 103.203125 16.269531 104.144531 14.683594 104.109375 C 12.226562 104.070312 10.484375 101.800781 9.117188 99.761719 C 8.382812 98.679688 7.648438 97.546875 7.378906 96.25 C 6.828125 93.5 8.574219 90.882812 10.191406 88.582031 C 14.589844 82.277344 18.585938 75.699219 22.128906 68.882812 C 23.636719 65.992188 25.226562 63.371094 26.9375 60.914062 C 28.074219 57.871094 29.625 54.960938 31.464844 52.320312 C 37.117188 44.191406 45.1875 38.117188 52.523438 31 C 51.636719 32.101562 50.808594 33.230469 50.019531 34.394531 C 50.597656 33.863281 51.1875 33.363281 51.789062 32.898438 C 60.710938 25.980469 65.242188 19.378906 75.214844 9.953125 C 78.273438 13.390625 81.066406 15.613281 79.1875 19.328125 Z M 79.1875 19.328125 " fill-opacity="1" fill-rule="nonzero"/><path fill="#000000" d="M 97.378906 24.777344 C 95.050781 21.464844 89.175781 21.597656 86.074219 18.847656 C 84.855469 17.773438 84.164062 16.316406 83.484375 14.894531 C 83.007812 13.921875 82.550781 12.949219 82.085938 11.976562 C 84.265625 13.375 87.328125 14.054688 90.171875 14.933594 C 93.015625 15.828125 95.902344 17.132812 96.984375 19.589844 C 97.6875 21.15625 97.539062 23.007812 97.378906 24.777344 Z M 97.378906 24.777344 " fill-opacity="1" fill-rule="nonzero"/><path fill="#000000" d="M 109.785156 32.226562 C 109.675781 32.375 109.523438 32.527344 109.34375 32.589844 C 109.152344 32.652344 108.949219 32.597656 108.773438 32.542969 C 106.816406 31.980469 104.882812 31.363281 102.972656 30.683594 C 102.789062 30.082031 103.640625 29.585938 104.3125 29.394531 C 104.984375 29.214844 105.84375 28.792969 105.75 28.171875 C 105.71875 27.925781 105.523438 27.742188 105.355469 27.578125 C 104.304688 26.542969 103.4375 25.339844 102.898438 23.964844 C 102.261719 22.34375 102.101562 20.515625 101.351562 18.941406 C 100.570312 17.320312 99.148438 16.039062 97.421875 15.375 C 99.464844 15.992188 101.035156 16.617188 102.601562 17.234375 C 104.921875 18.160156 107.417969 19.234375 108.386719 21.449219 C 109.28125 23.464844 108.671875 25.964844 109.335938 28.082031 C 109.769531 29.441406 110.679688 30.9375 109.785156 32.226562 Z M 109.785156 32.226562 " fill-opacity="1" fill-rule="nonzero"/><path fill="#000000" d="M 110.867188 113.324219 C 98.5 123.539062 81.5 127.894531 65.765625 124.867188 C 61.230469 123.996094 56.832031 122.558594 52.453125 121.121094 C 41.878906 117.65625 31.148438 114.121094 22.019531 107.78125 C 28.785156 107.480469 34.804688 103.644531 40.734375 100.363281 C 46.664062 97.074219 53.484375 94.164062 60.046875 95.839844 C 67.976562 97.863281 73.730469 106.183594 81.910156 106.332031 C 77.515625 107.558594 73.109375 108.785156 68.703125 109.976562 C 65.496094 110.839844 62.195312 111.703125 58.894531 111.316406 C 66.53125 113.378906 74.679688 113.488281 82.371094 111.621094 C 86.777344 110.554688 91.007812 108.855469 95.382812 107.660156 C 99.757812 106.46875 104.398438 105.773438 108.820312 106.769531 C 110.046875 107.035156 112.832031 107.394531 113.09375 109.550781 C 113.277344 111.070312 112.042969 112.34375 110.867188 113.324219 Z M 110.867188 113.324219 " fill-opacity="1" fill-rule="nonzero"/><path fill="#000000" d="M 118.441406 8.957031 C 116.867188 9.058594 115.769531 11.226562 114.175781 11.824219 C 113.496094 12.078125 112.761719 12.03125 112.042969 12.078125 C 110.15625 12.207031 108.300781 13.058594 106.984375 14.402344 C 106.652344 14.75 106.34375 15.121094 105.917969 15.367188 C 105.0625 15.859375 103.980469 15.675781 103.144531 15.242188 C 102.308594 14.808594 101.628906 14.160156 100.800781 13.707031 C 98.011719 12.179688 94.269531 13.152344 91.261719 12.046875 C 90.140625 11.628906 89.160156 10.941406 88.070312 10.480469 C 86.332031 9.730469 84.34375 9.570312 82.472656 9.167969 C 80.59375 8.757812 78.667969 8.03125 77.625 6.527344 C 80.617188 4.203125 84.519531 3.207031 88.285156 3.089844 C 92.042969 2.96875 95.746094 3.648438 99.394531 4.335938 C 103.949219 5.183594 108.523438 6.039062 113.085938 6.882812 C 115.019531 7.238281 117.066406 7.652344 118.441406 8.957031 Z M 118.441406 8.957031 " fill-opacity="1" fill-rule="nonzero"/><path fill="#000000" d="M 117.492188 32.195312 C 117.144531 33.507812 116.101562 34.597656 114.816406 35.019531 C 113.535156 35.429688 112.050781 35.144531 110.457031 34.726562 C 112.476562 34.171875 113.355469 31.71875 113.261719 29.617188 C 113.164062 27.523438 112.414062 25.464844 112.535156 23.363281 C 112.582031 22.492188 112.785156 21.628906 112.722656 20.761719 C 112.542969 18.585938 110.734375 16.769531 110.695312 14.59375 C 110.695312 14.339844 110.71875 14.0625 110.859375 13.859375 C 111.058594 13.597656 111.386719 13.496094 111.710938 13.496094 C 112.605469 13.484375 113.402344 14.085938 113.960938 14.789062 C 114.523438 15.488281 114.910156 16.308594 115.445312 17.027344 C 115.921875 17.660156 116.527344 18.214844 116.84375 18.933594 C 117.113281 19.550781 117.144531 20.230469 117.175781 20.894531 C 117.328125 23.828125 117.476562 26.769531 117.625 29.695312 C 117.675781 30.542969 117.714844 31.394531 117.492188 32.195312 Z M 117.492188 32.195312 " fill-opacity="1" fill-rule="nonzero"/><path fill="#000000" d="M 123.628906 34.804688 C 122.269531 36.386719 119.828125 36.679688 117.246094 36.195312 C 118.835938 35.269531 119.726562 33.445312 119.988281 31.632812 C 120.238281 29.816406 119.941406 27.972656 119.648438 26.152344 C 119.125 22.953125 118.605469 19.742188 118.085938 16.546875 C 117.996094 16.039062 117.925781 15.519531 118.046875 15.011719 C 118.164062 14.515625 118.566406 14.054688 119.078125 14 C 119.371094 13.976562 119.664062 14.085938 119.910156 14.253906 C 120.816406 14.863281 121.15625 16 121.433594 17.042969 C 122.324219 20.429688 123.21875 23.796875 124.109375 27.171875 C 124.78125 29.75 125.363281 32.789062 123.628906 34.804688 Z M 123.628906 34.804688 " fill-opacity="1" fill-rule="nonzero"/><path fill="#000000" d="M 127.449219 100.851562 C 124.316406 97.320312 118.789062 96.171875 114.515625 98.171875 C 112.148438 99.289062 110.171875 101.234375 107.652344 101.890625 C 105.167969 102.539062 102.550781 101.832031 99.988281 101.769531 C 93.976562 101.628906 88.070312 104.988281 82.179688 103.785156 C 77.285156 102.796875 73.589844 98.890625 70.035156 95.375 C 66.476562 91.855469 62.1875 88.335938 57.1875 88.460938 C 59.535156 86.421875 61.886719 84.398438 64.234375 82.359375 C 64.265625 82.335938 64.296875 82.304688 64.328125 82.277344 C 63.5 79.679688 64.214844 76.949219 65.84375 76.199219 C 66.207031 77.382812 66.75 78.5625 67.429688 79.6875 C 68.703125 78.679688 70.027344 77.757812 71.449219 76.996094 C 78.113281 73.4375 86.390625 73.921875 93.417969 76.695312 C 95.210938 77.402344 96.976562 78.253906 98.875 78.53125 C 100.671875 78.800781 102.496094 78.53125 104.3125 78.507812 C 113.511719 78.363281 122.378906 85.03125 124.828125 93.910156 C 124.542969 93.515625 126.5 97.066406 127.449219 100.851562 Z M 127.449219 100.851562 " fill-opacity="1" fill-rule="nonzero"/><path fill="#000000" d="M 131.671875 27.085938 C 131.671875 28.867188 130.796875 30.542969 129.589844 31.839844 C 128.398438 33.144531 126.890625 34.125 125.007812 34.835938 C 125.773438 32.820312 128.035156 31.394531 128.058594 29.238281 C 128.058594 28.511719 127.796875 27.8125 127.535156 27.125 C 126.121094 23.449219 124.710938 19.757812 123.289062 16.0625 C 122.972656 15.234375 122.640625 14.371094 122.664062 13.476562 C 122.679688 12.585938 123.128906 11.636719 123.953125 11.296875 C 126.375 15.019531 128.554688 18.910156 130.441406 22.933594 C 131.066406 24.246094 131.65625 25.632812 131.671875 27.085938 Z M 131.671875 27.085938 " fill-opacity="1" fill-rule="nonzero"/><path fill="#ffffff" d="M 157.101562 117.308594 C 153.144531 112.308594 145.007812 110.855469 139.375 107.011719 C 131.589844 101.6875 129.3125 92.378906 124.761719 84.667969 C 122.179688 80.289062 117.613281 75.851562 112.027344 76.5625 C 118.121094 70.957031 127.652344 68.453125 136.132812 70.222656 C 143.558594 71.769531 149.777344 76.222656 156.988281 78.355469 C 161.65625 90.816406 160.371094 104.308594 157.101562 117.308594 Z M 157.101562 117.308594 " fill-opacity="1" fill-rule="nonzero"/><path fill="#ffffff" d="M 127.449219 100.847656 C 124.316406 97.316406 118.789062 96.167969 114.515625 98.167969 C 112.148438 99.285156 110.175781 101.230469 107.65625 101.886719 C 105.167969 102.535156 102.554688 101.828125 99.988281 101.765625 C 93.980469 101.625 88.074219 104.984375 82.183594 103.78125 C 77.285156 102.792969 73.589844 98.886719 70.039062 95.371094 C 66.476562 91.851562 62.1875 88.332031 57.191406 88.457031 C 59.535156 86.417969 61.890625 84.394531 64.234375 82.355469 C 64.265625 82.332031 64.296875 82.300781 64.328125 82.273438 C 65.347656 81.390625 66.375 80.511719 67.433594 79.683594 C 68.703125 78.675781 70.03125 77.753906 71.453125 76.992188 C 78.117188 73.433594 86.390625 73.917969 93.417969 76.691406 C 95.210938 77.398438 96.980469 78.25 98.875 78.527344 C 100.675781 78.796875 102.5 78.527344 104.316406 78.503906 C 113.515625 78.359375 122.382812 85.027344 124.828125 93.90625 C 124.546875 93.511719 126.503906 97.0625 127.449219 100.847656 Z M 127.449219 100.847656 " fill-opacity="1" fill-rule="nonzero"/><path fill="#ffffff" d="M 110.867188 113.320312 C 98.503906 123.535156 81.503906 127.890625 65.765625 124.863281 C 61.234375 123.992188 56.835938 122.554688 52.453125 121.117188 C 41.878906 117.652344 31.148438 114.117188 22.019531 107.777344 C 28.789062 107.476562 34.804688 103.640625 40.734375 100.359375 C 46.664062 97.070312 53.488281 94.160156 60.050781 95.835938 C 67.976562 97.859375 73.734375 106.179688 81.914062 106.328125 C 77.515625 107.554688 73.109375 108.78125 68.703125 109.972656 C 65.496094 110.835938 62.195312 111.699219 58.894531 111.3125 C 66.53125 113.375 74.679688 113.484375 82.371094 111.617188 C 86.777344 110.550781 91.011719 108.851562 95.382812 107.65625 C 99.757812 106.464844 104.402344 105.769531 108.824219 106.765625 C 110.046875 107.03125 112.835938 107.390625 113.09375 109.546875 C 113.277344 111.066406 112.046875 112.339844 110.867188 113.320312 Z M 110.867188 113.320312 " fill-opacity="1" fill-rule="nonzero"/><path fill="#ffffff" d="M 79.191406 19.324219 C 76.511719 24.625 71.152344 28.039062 67.890625 33.003906 C 64.820312 37.695312 63.839844 43.417969 61.644531 48.574219 C 60.292969 51.777344 58.46875 54.8125 57.75 58.207031 C 57 61.78125 57.554688 65.496094 57.292969 69.148438 C 56.992188 73.339844 55.539062 77.554688 52.601562 80.550781 C 49.539062 83.691406 45.210938 85.214844 41.011719 86.457031 C 36.8125 87.699219 32.445312 88.808594 28.875 91.34375 C 25.3125 93.898438 22.683594 98.335938 23.617188 102.753906 C 22.488281 101.632812 20.601562 101.910156 19.148438 102.558594 C 17.695312 103.199219 16.273438 104.140625 14.6875 104.105469 C 12.230469 104.066406 10.484375 101.796875 9.117188 99.757812 C 8.382812 98.675781 7.648438 97.542969 7.382812 96.246094 C 6.828125 93.496094 8.574219 90.878906 10.191406 88.578125 C 14.589844 82.273438 18.585938 75.695312 22.132812 68.878906 C 23.640625 65.988281 25.226562 63.367188 26.941406 60.910156 C 30.042969 56.433594 33.542969 52.464844 37.609375 48.25 C 37.617188 48.242188 37.632812 48.226562 37.648438 48.210938 C 37.867188 47.972656 38.105469 47.738281 38.335938 47.5 C 42.1875 43.546875 45.820312 38.230469 50.019531 34.390625 C 50.597656 33.859375 51.191406 33.359375 51.789062 32.894531 C 60.710938 25.976562 65.246094 19.375 75.21875 9.949219 C 78.273438 13.386719 81.070312 15.609375 79.191406 19.324219 Z M 79.191406 19.324219 " fill-opacity="1" fill-rule="nonzero"/><path fill="#ffffff" d="M 54.789062 83.003906 C 51.109375 89.351562 45.242188 94.183594 38.5 96.34375 C 34.222656 97.703125 29.378906 98.160156 26.085938 101.207031 C 27.917969 97.542969 30.644531 94.144531 34.394531 92.523438 C 36.125 91.78125 37.996094 91.441406 39.804688 90.917969 C 45.257812 89.34375 50.070312 86.148438 54.789062 83.003906 Z M 54.789062 83.003906 " fill-opacity="1" fill-rule="nonzero"/><path fill="#ffffff" d="M 97.382812 24.773438 C 95.054688 21.460938 89.179688 21.59375 86.074219 18.84375 C 84.859375 17.769531 84.164062 16.3125 83.484375 14.890625 C 83.011719 13.917969 82.554688 12.945312 82.085938 11.972656 C 84.265625 13.371094 87.332031 14.050781 90.171875 14.929688 C 93.015625 15.824219 95.90625 17.128906 96.988281 19.585938 C 97.691406 21.152344 97.539062 23.003906 97.382812 24.773438 Z M 97.382812 24.773438 " fill-opacity="1" fill-rule="nonzero"/><path fill="#ffffff" d="M 109.789062 32.222656 C 109.675781 32.371094 109.527344 32.523438 109.34375 32.585938 C 109.15625 32.648438 108.949219 32.59375 108.777344 32.539062 C 106.816406 31.976562 104.882812 31.359375 102.972656 30.679688 C 102.792969 30.078125 103.644531 29.582031 104.316406 29.390625 C 104.984375 29.210938 105.847656 28.789062 105.753906 28.167969 C 105.71875 27.921875 105.523438 27.738281 105.355469 27.574219 C 104.308594 26.539062 103.4375 25.335938 102.902344 23.960938 C 102.261719 22.339844 102.105469 20.511719 101.355469 18.9375 C 100.574219 17.316406 99.152344 16.035156 97.421875 15.371094 C 99.46875 15.988281 101.039062 16.613281 102.601562 17.230469 C 104.921875 18.15625 107.417969 19.230469 108.390625 21.445312 C 109.28125 23.460938 108.671875 25.960938 109.335938 28.078125 C 109.769531 29.4375 110.679688 30.933594 109.789062 32.222656 Z M 109.789062 32.222656 " fill-opacity="1" fill-rule="nonzero"/><path fill="#ffffff" d="M 117.492188 32.191406 C 117.144531 33.503906 116.105469 34.59375 114.816406 35.015625 C 113.539062 35.425781 112.054688 35.140625 110.457031 34.722656 C 112.480469 34.167969 113.355469 31.714844 113.261719 29.613281 C 113.167969 27.519531 112.417969 25.460938 112.535156 23.359375 C 112.582031 22.488281 112.789062 21.625 112.722656 20.757812 C 112.542969 18.582031 110.734375 16.765625 110.695312 14.589844 C 110.695312 14.335938 110.71875 14.058594 110.859375 13.855469 C 111.058594 13.59375 111.390625 13.488281 111.714844 13.488281 C 112.605469 13.480469 113.402344 14.082031 113.964844 14.785156 C 114.523438 15.484375 114.910156 16.304688 115.449219 17.023438 C 115.921875 17.65625 116.53125 18.210938 116.847656 18.929688 C 117.113281 19.546875 117.144531 20.226562 117.179688 20.890625 C 117.328125 23.824219 117.476562 26.765625 117.628906 29.691406 C 117.675781 30.539062 117.714844 31.390625 117.492188 32.191406 Z M 117.492188 32.191406 " fill-opacity="1" fill-rule="nonzero"/><path fill="#ffffff" d="M 123.628906 34.800781 C 122.269531 36.382812 119.832031 36.675781 117.25 36.191406 C 118.835938 35.265625 119.726562 33.441406 119.988281 31.628906 C 120.242188 29.8125 119.941406 27.96875 119.648438 26.148438 C 119.128906 22.945312 118.605469 19.738281 118.085938 16.542969 C 118 16.035156 117.929688 15.515625 118.046875 15.007812 C 118.164062 14.511719 118.566406 14.050781 119.082031 13.996094 C 119.375 13.972656 119.664062 14.082031 119.910156 14.25 C 120.816406 14.859375 121.15625 15.996094 121.433594 17.039062 C 122.328125 20.425781 123.21875 23.792969 124.109375 27.167969 C 124.78125 29.746094 125.367188 32.785156 123.628906 34.800781 Z M 123.628906 34.800781 " fill-opacity="1" fill-rule="nonzero"/><path fill="#ffffff" d="M 131.675781 27.082031 C 131.675781 28.863281 130.800781 30.539062 129.589844 31.835938 C 128.398438 33.140625 126.890625 34.121094 125.011719 34.832031 C 125.777344 32.816406 128.035156 31.390625 128.058594 29.234375 C 128.058594 28.507812 127.796875 27.808594 127.539062 27.121094 C 126.125 23.445312 124.710938 19.753906 123.289062 16.058594 C 122.972656 15.230469 122.640625 14.367188 122.664062 13.472656 C 122.679688 12.582031 123.132812 11.632812 123.953125 11.292969 C 126.378906 15.015625 128.554688 18.90625 130.445312 22.929688 C 131.066406 24.242188 131.660156 25.628906 131.675781 27.082031 Z M 131.675781 27.082031 " fill-opacity="1" fill-rule="nonzero"/><path fill="#ffffff" d="M 118.441406 8.953125 C 116.871094 9.054688 115.773438 11.222656 114.175781 11.820312 C 113.5 12.074219 112.765625 12.027344 112.046875 12.074219 C 110.160156 12.203125 108.300781 13.054688 106.984375 14.398438 C 106.652344 14.746094 106.34375 15.117188 105.917969 15.363281 C 105.066406 15.855469 103.984375 15.671875 103.144531 15.238281 C 102.308594 14.804688 101.628906 14.15625 100.800781 13.703125 C 98.015625 12.175781 94.269531 13.148438 91.261719 12.042969 C 90.140625 11.625 89.164062 10.9375 88.074219 10.476562 C 86.335938 9.726562 84.34375 9.566406 82.472656 9.164062 C 80.59375 8.753906 78.667969 8.027344 77.625 6.523438 C 80.617188 4.199219 84.519531 3.203125 88.285156 3.085938 C 92.042969 2.964844 95.746094 3.644531 99.394531 4.332031 C 103.953125 5.179688 108.523438 6.035156 113.085938 6.878906 C 115.023438 7.234375 117.066406 7.648438 118.441406 8.953125 Z M 118.441406 8.953125 " fill-opacity="1" fill-rule="nonzero"/><path fill="#000000" d="M 52.523438 30.996094 C 51.640625 32.097656 50.8125 33.226562 50.019531 34.390625 C 44.914062 41.917969 41.800781 50.804688 41.136719 59.898438 C 39.03125 56.378906 37.8125 52.324219 37.648438 48.210938 L 37.648438 48.1875 C 37.632812 48.210938 37.625 48.226562 37.609375 48.25 C 31.363281 57.875 27.445312 69.007812 26.292969 80.425781 C 23.988281 74.148438 24.570312 67.234375 26.941406 60.910156 C 28.078125 57.867188 29.625 54.957031 31.464844 52.316406 C 37.117188 44.1875 45.1875 38.113281 52.523438 30.996094 Z M 52.523438 30.996094 " fill-opacity="1" fill-rule="nonzero"/><path fill="#000000" d="M 85.386719 85.953125 C 84.742188 88.671875 81.859375 89.675781 79.085938 89.992188 C 76.566406 90.277344 73.84375 90.191406 71.136719 89.089844 C 68.433594 87.984375 65.765625 85.730469 64.574219 82.949219 C 64.480469 82.726562 64.398438 82.503906 64.328125 82.273438 C 63.5 79.671875 64.21875 76.945312 65.84375 76.195312 C 66.207031 77.378906 66.753906 78.558594 67.433594 79.683594 C 69.113281 82.472656 71.640625 84.902344 74.4375 86.300781 C 78.359375 88.261719 82.679688 88.117188 85.386719 85.953125 Z M 85.386719 85.953125 " fill-opacity="1" fill-rule="nonzero"/><path fill="#000000" d="M 143.648438 84.023438 C 150.339844 87.683594 156.59375 92 162.273438 96.875 C 163.601562 98.015625 164.921875 99.21875 165.703125 100.726562 C 166.554688 102.363281 166.699219 104.226562 166.753906 106.042969 C 166.816406 108.152344 167.144531 110.792969 166.484375 112.8125 C 164.523438 111.523438 163.167969 107.082031 161.898438 105.046875 C 160.265625 102.429688 158.484375 99.886719 156.570312 97.433594 C 154.652344 94.980469 152.597656 92.621094 150.417969 90.359375 C 148.484375 88.359375 146.171875 85.40625 143.648438 84.023438 Z M 143.648438 84.023438 " fill-opacity="1" fill-rule="nonzero"/><path fill="#000000" d="M 50.335938 197.3125 C 51.164062 203.234375 53.5625 208.71875 57.203125 213.179688 C 57.839844 213.960938 58.921875 214.226562 59.84375 213.824219 L 117.800781 188.457031 C 118.777344 179.734375 115.539062 172.023438 108.65625 169.242188 L 51.636719 194.9375 C 50.722656 195.347656 50.195312 196.320312 50.335938 197.3125 Z M 50.335938 197.3125 " fill-opacity="1" fill-rule="nonzero"/><path stroke-linecap="butt" transform="matrix(0.789618, 0, 0, 0.790724, 0.99916, 0.0795156)" fill-opacity="1" fill="#000000" fill-rule="nonzero" stroke-linejoin="miter" d="M 66.241592 253.835021 L 141.183919 219.753322 " stroke="#ffffff" stroke-width="2.179" stroke-opacity="1" stroke-miterlimit="10"/><path fill="#000000" d="M 55.175781 204.984375 L 115.136719 178.304688 " fill-opacity="1" fill-rule="nonzero"/><g clip-path="url(#c524c5b2d3)"><path stroke-linecap="butt" transform="matrix(0.789618, 0, 0, 0.790724, 0.99916, 0.0795156)" fill="none" stroke-linejoin="miter" d="M 68.611212 259.13574 L 144.547889 225.394908 " stroke="#ffffff" stroke-width="5.448" stroke-opacity="1" stroke-miterlimit="10"/></g><path stroke-linecap="butt" transform="matrix(0.789618, 0, 0, 0.790724, 0.99916, 0.0795156)" fill="none" stroke-linejoin="miter" d="M 134.975416 240.803057 L 76.951879 266.852165 C 75.507351 267.499317 73.493916 267.034948 72.469884 265.819686 C 69.254324 262.010874 66.939121 255.099685 65.786467 251.063629 C 65.271977 249.260495 66.16244 247.348679 67.86916 246.568145 L 136.02913 215.588824 C 136.02913 215.588824 147.476522 221.027866 145.571921 235.734521 Z M 134.975416 240.803057 " stroke="#ffffff" stroke-width="1" stroke-opacity="1" stroke-miterlimit="10"/><path fill="#000000" d="M 161.539062 163.027344 C 162.265625 164.699219 162.925781 166.394531 163.519531 168.117188 C 164.109375 169.835938 164.632812 171.574219 165.082031 173.328125 C 165.53125 175.085938 165.90625 176.847656 166.207031 178.621094 C 166.507812 180.390625 166.734375 182.164062 166.886719 183.9375 C 167.039062 185.707031 167.113281 187.472656 167.113281 189.226562 C 167.113281 190.980469 167.039062 192.71875 166.886719 194.441406 C 166.734375 196.160156 166.507812 197.855469 166.207031 199.527344 C 165.902344 201.195312 165.527344 202.832031 165.078125 204.4375 C 164.628906 206.039062 164.109375 207.601562 163.519531 209.125 C 162.925781 210.644531 162.265625 212.117188 161.535156 213.542969 C 160.808594 214.96875 160.011719 216.335938 159.152344 217.652344 C 158.292969 218.964844 157.375 220.21875 156.390625 221.410156 C 155.410156 222.601562 154.375 223.722656 153.277344 224.78125 C 152.183594 225.835938 151.039062 226.820312 149.84375 227.730469 C 148.648438 228.644531 147.40625 229.476562 146.121094 230.238281 C 144.835938 230.996094 143.511719 231.671875 142.144531 232.269531 C 140.78125 232.867188 139.386719 233.378906 137.957031 233.808594 C 136.527344 234.242188 135.070312 234.585938 133.59375 234.847656 C 132.113281 235.105469 130.613281 235.277344 129.09375 235.363281 C 127.578125 235.453125 126.050781 235.449219 124.511719 235.363281 C 122.972656 235.277344 121.429688 235.101562 119.882812 234.839844 C 118.335938 234.578125 116.792969 234.234375 115.25 233.800781 C 113.710938 233.371094 112.183594 232.855469 110.667969 232.257812 C 109.148438 231.660156 107.652344 230.980469 106.171875 230.222656 C 104.691406 229.460938 103.234375 228.625 101.808594 227.714844 C 100.378906 226.800781 98.980469 225.816406 97.617188 224.757812 C 96.253906 223.699219 94.925781 222.578125 93.640625 221.382812 C 92.355469 220.191406 91.113281 218.9375 89.917969 217.625 C 88.722656 216.308594 87.578125 214.9375 86.484375 213.515625 C 85.390625 212.089844 84.351562 210.613281 83.371094 209.09375 C 82.390625 207.570312 81.46875 206.007812 80.609375 204.402344 C 79.75 202.800781 78.957031 201.164062 78.226562 199.492188 C 77.5 197.820312 76.835938 196.125 76.246094 194.402344 C 75.652344 192.683594 75.132812 190.945312 74.683594 189.191406 C 74.234375 187.433594 73.859375 185.671875 73.558594 183.898438 C 73.257812 182.128906 73.03125 180.355469 72.878906 178.582031 C 72.726562 176.8125 72.652344 175.046875 72.652344 173.292969 C 72.652344 171.539062 72.726562 169.800781 72.878906 168.082031 C 73.03125 166.359375 73.257812 164.664062 73.558594 162.992188 C 73.859375 161.324219 74.234375 159.6875 74.683594 158.082031 C 75.132812 156.480469 75.65625 154.917969 76.246094 153.394531 C 76.839844 151.875 77.5 150.402344 78.230469 148.976562 C 78.957031 147.550781 79.753906 146.183594 80.613281 144.867188 C 81.472656 143.554688 82.390625 142.300781 83.371094 141.109375 C 84.355469 139.917969 85.390625 138.796875 86.484375 137.738281 C 87.578125 136.683594 88.722656 135.699219 89.921875 134.789062 C 91.117188 133.875 92.355469 133.042969 93.644531 132.285156 C 94.929688 131.527344 96.253906 130.847656 97.617188 130.25 C 98.984375 129.652344 100.378906 129.140625 101.808594 128.710938 C 103.238281 128.277344 104.691406 127.933594 106.171875 127.675781 C 107.652344 127.414062 109.152344 127.242188 110.667969 127.15625 C 112.1875 127.070312 113.714844 127.070312 115.253906 127.15625 C 116.792969 127.246094 118.335938 127.417969 119.882812 127.679688 C 121.429688 127.941406 122.972656 128.285156 124.511719 128.71875 C 126.050781 129.148438 127.582031 129.664062 129.097656 130.261719 C 130.613281 130.863281 132.113281 131.539062 133.59375 132.300781 C 135.074219 133.058594 136.527344 133.894531 137.957031 134.808594 C 139.386719 135.71875 140.785156 136.703125 142.148438 137.761719 C 143.511719 138.820312 144.835938 139.945312 146.125 141.136719 C 147.410156 142.328125 148.652344 143.582031 149.847656 144.894531 C 151.042969 146.210938 152.1875 147.582031 153.28125 149.007812 C 154.375 150.429688 155.414062 151.90625 156.394531 153.425781 C 157.375 154.949219 158.296875 156.511719 159.15625 158.117188 C 160.015625 159.71875 160.808594 161.359375 161.539062 163.027344 Z M 161.539062 163.027344 " fill-opacity="1" fill-rule="nonzero"/><path fill="#ffffff" d="M 97.21875 132.351562 C 94.09375 136.570312 92.035156 141.503906 91.160156 146.628906 C 90.222656 151.746094 90.324219 157.003906 91.066406 162.144531 C 92.59375 172.441406 96.292969 182.347656 101.011719 191.617188 C 105.765625 200.847656 112.117188 209.339844 119.933594 216.1875 C 123.84375 219.589844 128.199219 222.542969 133.003906 224.515625 C 135.394531 225.519531 137.898438 226.273438 140.46875 226.6875 C 143.039062 227.097656 145.667969 227.1875 148.277344 226.917969 C 143.09375 227.824219 137.675781 227.070312 132.71875 225.242188 C 127.753906 223.371094 123.226562 220.480469 119.140625 217.121094 C 115.039062 213.765625 111.445312 209.832031 108.183594 205.675781 C 104.941406 201.496094 102.046875 197.042969 99.613281 192.335938 C 97.25 187.605469 95.183594 182.738281 93.492188 177.730469 C 91.816406 172.722656 90.476562 167.570312 89.878906 162.300781 C 89.265625 157.042969 89.296875 151.667969 90.414062 146.476562 C 91.554688 141.3125 93.8125 136.359375 97.21875 132.351562 Z M 97.21875 132.351562 " fill-opacity="1" fill-rule="nonzero"/><path fill="#ffffff" d="M 132.230469 231.226562 C 130.210938 230.527344 127.242188 230.886719 125.089844 230.476562 C 101.765625 226.046875 85.53125 205.855469 80.316406 183.507812 C 77.140625 169.894531 78.140625 154.785156 86.667969 143.242188 C 87.25 142.457031 87.851562 141.660156 88.546875 140.964844 C 87.511719 142 87.117188 144.957031 86.757812 146.285156 C 85.488281 150.964844 84.816406 155.816406 84.699219 160.664062 C 84.105469 185.339844 99.5625 209.726562 118.332031 224.429688 C 118.332031 224.429688 128.988281 230.554688 132.230469 231.226562 Z M 132.230469 231.226562 " fill-opacity="1" fill-rule="nonzero"/><path fill="#ffffff" d="M 99.875 154.089844 C 99.914062 152.464844 100.042969 150.835938 100.292969 149.21875 C 100.546875 147.601562 100.964844 146.007812 101.519531 144.457031 C 102.632812 141.367188 104.460938 138.421875 107.140625 136.335938 C 109.808594 134.242188 113.234375 133.160156 116.621094 133.152344 C 120.015625 133.132812 123.339844 134.011719 126.398438 135.328125 C 129.46875 136.648438 132.328125 138.402344 134.953125 140.429688 C 137.589844 142.445312 140.015625 144.714844 142.257812 147.144531 C 146.742188 152.011719 150.429688 157.558594 153.453125 163.417969 C 156.433594 169.304688 158.695312 175.578125 159.960938 182.085938 C 160.570312 185.339844 160.925781 188.652344 160.929688 191.980469 C 160.929688 193.644531 160.828125 195.3125 160.632812 196.972656 C 160.414062 198.632812 160.082031 200.277344 159.617188 201.894531 C 158.683594 205.109375 157.132812 208.242188 154.738281 210.695312 C 152.363281 213.148438 149.132812 214.765625 145.78125 215.152344 C 142.425781 215.558594 139.074219 214.933594 136.011719 213.773438 C 132.921875 212.636719 130.097656 210.929688 127.492188 208.992188 C 130.242188 210.71875 133.144531 212.214844 136.214844 213.175781 C 139.265625 214.148438 142.519531 214.550781 145.609375 214.003906 C 148.703125 213.503906 151.550781 211.925781 153.609375 209.625 C 155.683594 207.328125 157.054688 204.433594 157.835938 201.398438 C 159.394531 195.28125 159.019531 188.75 157.761719 182.519531 C 156.476562 176.265625 154.269531 170.191406 151.34375 164.496094 C 148.449219 158.785156 144.878906 153.402344 140.601562 148.652344 C 136.363281 143.894531 131.367188 139.722656 125.652344 137.015625 C 122.796875 135.675781 119.71875 134.8125 116.609375 134.699219 C 113.503906 134.585938 110.375 135.449219 107.828125 137.265625 C 105.253906 139.050781 103.347656 141.738281 102.101562 144.6875 C 100.84375 147.644531 100.199219 150.859375 99.875 154.089844 Z M 99.875 154.089844 " fill-opacity="1" fill-rule="nonzero"/><path fill="#ffffff" d="M 147.234375 174.351562 C 147.527344 175.785156 147.675781 177.257812 147.613281 178.742188 C 147.554688 180.21875 147.292969 181.722656 146.640625 183.113281 C 146.007812 184.5 144.847656 185.742188 143.355469 186.332031 C 141.875 186.960938 140.203125 186.914062 138.714844 186.539062 C 137.210938 186.164062 135.824219 185.480469 134.542969 184.671875 C 133.289062 183.824219 132.113281 182.875 131.039062 181.824219 C 128.894531 179.714844 127.140625 177.257812 125.667969 174.664062 C 124.222656 172.050781 123.089844 169.257812 122.40625 166.332031 C 122.050781 164.875 121.851562 163.375 121.773438 161.871094 C 121.675781 160.363281 121.8125 158.828125 122.171875 157.335938 C 122.539062 155.855469 123.183594 154.363281 124.320312 153.238281 C 124.617188 152.976562 124.882812 152.675781 125.238281 152.488281 C 125.574219 152.277344 125.902344 152.054688 126.277344 151.917969 C 127.007812 151.617188 127.792969 151.46875 128.5625 151.457031 C 130.117188 151.441406 131.582031 151.941406 132.902344 152.605469 C 134.230469 153.265625 135.414062 154.160156 136.5 155.140625 C 135.308594 154.292969 134.058594 153.53125 132.726562 152.984375 C 131.402344 152.449219 129.976562 152.101562 128.601562 152.230469 C 127.914062 152.289062 127.25 152.457031 126.644531 152.746094 C 126.335938 152.878906 126.070312 153.089844 125.800781 153.28125 C 125.511719 153.449219 125.304688 153.726562 125.066406 153.957031 C 124.171875 154.949219 123.640625 156.253906 123.371094 157.609375 C 122.847656 160.339844 123.148438 163.234375 123.859375 165.976562 C 124.550781 168.738281 125.640625 171.40625 127.050781 173.894531 C 128.429688 176.390625 130.105469 178.738281 132.09375 180.765625 C 133.082031 181.785156 134.164062 182.703125 135.308594 183.519531 C 136.480469 184.292969 137.71875 184.960938 139.03125 185.351562 C 140.339844 185.746094 141.734375 185.8125 142.984375 185.367188 C 144.25 184.957031 145.300781 183.976562 145.960938 182.757812 C 146.652344 181.546875 147.03125 180.132812 147.199219 178.707031 C 147.363281 177.273438 147.359375 175.808594 147.234375 174.351562 Z M 147.234375 174.351562 " fill-opacity="1" fill-rule="nonzero"/><path fill="#000000" d="M 130.925781 157.988281 C 132.289062 164.8125 135.453125 171.507812 140.097656 176.585938 L 196.261719 151.90625 C 192.445312 145.992188 189.3125 139.46875 187.117188 132.6875 Z M 130.925781 157.988281 " fill-opacity="1" fill-rule="nonzero"/><path stroke-linecap="butt" transform="matrix(0.789618, 0, 0, 0.790724, 0.99916, 0.0795156)" fill-opacity="1" fill="#000000" fill-rule="nonzero" stroke-linejoin="miter" d="M 165.607332 207.605634 L 229.9581 177.772415 " stroke="#ffffff" stroke-width="2.179" stroke-opacity="1" stroke-miterlimit="10"/><path stroke-linecap="butt" transform="matrix(0.789618, 0, 0, 0.790724, 0.99916, 0.0795156)" fill-opacity="1" fill="#000000" fill-rule="nonzero" stroke-linejoin="miter" d="M 167.976952 212.906353 L 232.94115 183.013853 " stroke="#ffffff" stroke-width="5.448" stroke-opacity="1" stroke-miterlimit="10"/><path fill="#000000" d="M 259.171875 116.40625 C 259.976562 118.253906 260.722656 120.121094 261.402344 122.011719 C 262.082031 123.902344 262.699219 125.808594 263.25 127.722656 C 263.800781 129.640625 264.28125 131.558594 264.695312 133.484375 C 265.109375 135.410156 265.453125 137.328125 265.726562 139.238281 C 265.996094 141.152344 266.199219 143.050781 266.328125 144.933594 C 266.457031 146.816406 266.515625 148.675781 266.5 150.511719 C 266.488281 152.347656 266.398438 154.148438 266.242188 155.917969 C 266.082031 157.6875 265.851562 159.417969 265.550781 161.105469 C 265.25 162.792969 264.875 164.429688 264.433594 166.019531 C 263.992188 167.609375 263.484375 169.140625 262.90625 170.613281 C 262.328125 172.089844 261.6875 173.5 260.980469 174.847656 C 260.273438 176.191406 259.503906 177.46875 258.675781 178.675781 C 257.84375 179.878906 256.957031 181.007812 256.007812 182.058594 C 255.0625 183.113281 254.066406 184.082031 253.011719 184.972656 C 251.960938 185.863281 250.863281 186.667969 249.714844 187.382812 C 248.566406 188.101562 247.375 188.730469 246.144531 189.269531 C 244.910156 189.8125 243.640625 190.257812 242.335938 190.613281 C 241.027344 190.96875 239.691406 191.234375 238.328125 191.402344 C 236.960938 191.570312 235.570312 191.644531 234.15625 191.625 C 232.742188 191.605469 231.3125 191.492188 229.863281 191.285156 C 228.417969 191.074219 226.960938 190.773438 225.492188 190.378906 C 224.027344 189.984375 222.554688 189.496094 221.082031 188.921875 C 219.609375 188.34375 218.140625 187.675781 216.675781 186.921875 C 215.210938 186.167969 213.761719 185.328125 212.316406 184.402344 C 210.875 183.480469 209.453125 182.476562 208.046875 181.390625 C 206.644531 180.304688 205.261719 179.144531 203.90625 177.90625 C 202.550781 176.671875 201.230469 175.367188 199.9375 173.992188 C 198.644531 172.617188 197.390625 171.179688 196.171875 169.679688 C 194.957031 168.179688 193.785156 166.625 192.65625 165.015625 C 191.527344 163.40625 190.445312 161.746094 189.414062 160.039062 C 188.382812 158.335938 187.40625 156.589844 186.484375 154.804688 C 185.558594 153.019531 184.695312 151.203125 183.890625 149.355469 C 183.082031 147.507812 182.339844 145.640625 181.660156 143.75 C 180.976562 141.859375 180.363281 139.953125 179.8125 138.039062 C 179.261719 136.121094 178.78125 134.199219 178.367188 132.277344 C 177.953125 130.351562 177.609375 128.433594 177.335938 126.523438 C 177.0625 124.609375 176.863281 122.710938 176.730469 120.828125 C 176.601562 118.945312 176.542969 117.085938 176.558594 115.25 C 176.574219 113.414062 176.660156 111.613281 176.820312 109.84375 C 176.980469 108.074219 177.210938 106.34375 177.511719 104.65625 C 177.8125 102.96875 178.183594 101.332031 178.625 99.742188 C 179.066406 98.152344 179.578125 96.621094 180.152344 95.148438 C 180.730469 93.671875 181.375 92.261719 182.082031 90.914062 C 182.789062 89.570312 183.558594 88.292969 184.386719 87.085938 C 185.21875 85.882812 186.105469 84.753906 187.050781 83.699219 C 187.996094 82.648438 188.996094 81.675781 190.046875 80.789062 C 191.097656 79.898438 192.199219 79.09375 193.347656 78.375 C 194.496094 77.660156 195.683594 77.03125 196.917969 76.492188 C 198.152344 75.949219 199.421875 75.503906 200.726562 75.148438 C 202.03125 74.792969 203.367188 74.527344 204.734375 74.359375 C 206.101562 74.191406 207.492188 74.117188 208.90625 74.136719 C 210.316406 74.15625 211.75 74.269531 213.195312 74.476562 C 214.644531 74.6875 216.101562 74.988281 217.566406 75.382812 C 219.035156 75.777344 220.503906 76.261719 221.976562 76.839844 C 223.449219 77.417969 224.917969 78.085938 226.382812 78.839844 C 227.847656 79.59375 229.300781 80.433594 230.742188 81.355469 C 232.183594 82.28125 233.609375 83.285156 235.011719 84.371094 C 236.417969 85.457031 237.796875 86.617188 239.152344 87.855469 C 240.507812 89.089844 241.832031 90.394531 243.125 91.769531 C 244.417969 93.144531 245.671875 94.582031 246.886719 96.082031 C 248.105469 97.582031 249.277344 99.136719 250.40625 100.746094 C 251.535156 102.355469 252.617188 104.015625 253.644531 105.722656 C 254.675781 107.425781 255.65625 109.171875 256.578125 110.957031 C 257.5 112.742188 258.363281 114.558594 259.171875 116.40625 Z M 259.171875 116.40625 " fill-opacity="1" fill-rule="nonzero"/><path stroke-linecap="butt" transform="matrix(0.789618, 0, 0, 0.790724, 0.99916, 0.0795156)" fill="none" stroke-linejoin="miter" d="M 226.119217 173.321391 L 167.234899 200.338758 C 165.523232 201.124233 164.63277 203.031108 165.152206 204.839182 C 166.319702 208.919699 168.674481 215.949451 171.949405 219.728621 C 173.027854 220.968585 174.82362 221.294631 176.317619 220.622778 L 234.336208 194.57861 " stroke="#ffffff" stroke-width="1" stroke-opacity="1" stroke-miterlimit="10"/><path fill="#ffffff" d="M 202.824219 82.277344 C 199.519531 86.15625 197.199219 90.792969 196.003906 95.691406 C 194.746094 100.582031 194.476562 105.679688 194.835938 110.707031 C 195.582031 120.78125 198.453125 130.632812 202.351562 139.945312 C 206.277344 149.21875 211.804688 157.902344 218.867188 165.101562 C 222.402344 168.683594 226.402344 171.855469 230.910156 174.113281 C 233.148438 175.257812 235.519531 176.167969 237.976562 176.75 C 240.433594 177.332031 242.976562 177.597656 245.519531 177.515625 C 240.4375 178.042969 235.246094 176.925781 230.578125 174.796875 C 225.910156 172.628906 221.738281 169.5 218.035156 165.949219 C 214.308594 162.398438 211.121094 158.332031 208.269531 154.070312 C 205.4375 149.792969 202.957031 145.273438 200.949219 140.539062 C 199.003906 135.789062 197.351562 130.933594 196.074219 125.964844 C 194.808594 120.996094 193.882812 115.914062 193.675781 110.773438 C 193.453125 105.644531 193.855469 100.445312 195.292969 95.496094 C 196.75 90.574219 199.261719 85.929688 202.824219 82.277344 Z M 202.824219 82.277344 " fill-opacity="1" fill-rule="nonzero"/><path fill="#ffffff" d="M 229.746094 180.597656 C 227.847656 179.777344 224.960938 179.925781 222.914062 179.382812 C 200.734375 173.488281 186.476562 152.789062 182.992188 130.75 C 180.871094 117.328125 182.878906 102.738281 191.898438 92.121094 C 192.515625 91.398438 193.152344 90.667969 193.867188 90.042969 C 192.800781 90.972656 192.214844 93.816406 191.773438 95.078125 C 190.226562 99.53125 189.242188 104.191406 188.796875 108.886719 C 186.519531 132.785156 199.738281 157.503906 216.816406 173.050781 C 216.816406 173.050781 226.667969 179.722656 229.746094 180.597656 Z M 229.746094 180.597656 " fill-opacity="1" fill-rule="nonzero"/><path fill="#ffffff" d="M 238.050781 157.210938 C 236.796875 156.667969 234.890625 156.765625 233.539062 156.40625 C 218.882812 152.511719 209.460938 138.835938 207.160156 124.273438 C 205.761719 115.40625 207.085938 105.765625 213.046875 98.75 C 213.453125 98.273438 213.875 97.789062 214.347656 97.375 C 213.640625 97.992188 213.253906 99.871094 212.964844 100.703125 C 211.941406 103.648438 211.292969 106.726562 210.996094 109.828125 C 209.492188 125.621094 218.226562 141.949219 229.507812 152.222656 C 229.511719 152.222656 236.019531 156.628906 238.050781 157.210938 Z M 238.050781 157.210938 " fill-opacity="1" fill-rule="nonzero"/><path fill="#ffffff" d="M 203.882812 103.550781 C 204.03125 101.980469 204.265625 100.414062 204.617188 98.863281 C 204.972656 97.316406 205.484375 95.804688 206.125 94.339844 C 207.402344 91.425781 209.355469 88.691406 212.082031 86.839844 C 214.792969 84.988281 218.183594 84.160156 221.460938 84.382812 C 224.75 84.597656 227.90625 85.683594 230.773438 87.175781 C 233.648438 88.671875 236.285156 90.578125 238.675781 92.726562 C 241.085938 94.863281 243.261719 97.238281 245.257812 99.75 C 249.242188 104.785156 252.40625 110.414062 254.910156 116.300781 C 257.371094 122.207031 259.113281 128.433594 259.882812 134.816406 C 260.246094 138.007812 260.355469 141.238281 260.132812 144.457031 C 260.019531 146.066406 259.808594 147.671875 259.511719 149.265625 C 259.183594 150.851562 258.757812 152.421875 258.203125 153.957031 C 257.082031 157.003906 255.394531 159.9375 252.925781 162.164062 C 250.480469 164.398438 247.246094 165.757812 243.980469 165.921875 C 240.703125 166.101562 237.5 165.261719 234.617188 163.929688 C 231.707031 162.613281 229.097656 160.761719 226.714844 158.703125 C 229.253906 160.566406 231.953125 162.222656 234.855469 163.367188 C 237.742188 164.519531 240.863281 165.132812 243.886719 164.796875 C 246.910156 164.511719 249.765625 163.167969 251.898438 161.058594 C 254.046875 158.960938 255.550781 156.246094 256.511719 153.359375 C 258.417969 147.542969 258.503906 141.199219 257.722656 135.082031 C 256.917969 128.941406 255.214844 122.910156 252.792969 117.191406 C 250.402344 111.457031 247.335938 105.992188 243.546875 101.089844 C 239.789062 96.179688 235.265625 91.777344 229.929688 88.75 C 227.261719 87.253906 224.347656 86.199219 221.347656 85.878906 C 218.347656 85.554688 215.265625 86.1875 212.6875 87.78125 C 210.082031 89.347656 208.066406 91.828125 206.667969 94.597656 C 205.257812 97.378906 204.417969 100.445312 203.882812 103.550781 Z M 203.882812 103.550781 " fill-opacity="1" fill-rule="nonzero"/><path fill="#ffffff" d="M 248.144531 126.445312 C 248.324219 127.851562 248.367188 129.285156 248.207031 130.714844 C 248.054688 132.140625 247.695312 133.578125 246.980469 134.882812 C 246.277344 136.179688 245.082031 137.316406 243.597656 137.792969 C 242.125 138.308594 240.507812 138.152344 239.089844 137.683594 C 237.660156 137.214844 236.367188 136.457031 235.1875 135.578125 C 234.03125 134.671875 232.964844 133.664062 232 132.570312 C 230.078125 130.375 228.558594 127.875 227.320312 125.257812 C 226.109375 122.628906 225.210938 119.84375 224.757812 116.96875 C 224.515625 115.53125 224.425781 114.070312 224.453125 112.605469 C 224.464844 111.140625 224.699219 109.667969 225.140625 108.246094 C 225.59375 106.839844 226.3125 105.4375 227.480469 104.417969 C 228.058594 103.910156 228.734375 103.515625 229.457031 103.257812 C 230.183594 103.011719 230.949219 102.914062 231.699219 102.957031 C 233.207031 103.042969 234.585938 103.628906 235.816406 104.359375 C 237.058594 105.09375 238.140625 106.046875 239.121094 107.070312 C 238.027344 106.167969 236.871094 105.339844 235.621094 104.71875 C 234.378906 104.101562 233.023438 103.671875 231.683594 103.707031 C 231.015625 103.71875 230.363281 103.835938 229.761719 104.082031 C 229.164062 104.339844 228.621094 104.703125 228.160156 105.15625 C 227.230469 106.066406 226.636719 107.296875 226.285156 108.589844 C 225.601562 111.199219 225.6875 114.023438 226.1875 116.726562 C 226.660156 119.445312 227.527344 122.105469 228.710938 124.613281 C 229.867188 127.128906 231.316406 129.519531 233.09375 131.625 C 233.980469 132.679688 234.957031 133.648438 236.007812 134.519531 C 237.082031 135.351562 238.234375 136.085938 239.476562 136.558594 C 240.714844 137.027344 242.0625 137.1875 243.296875 136.835938 C 244.546875 136.519531 245.621094 135.632812 246.339844 134.496094 C 247.085938 133.367188 247.546875 132.027344 247.808594 130.65625 C 248.0625 129.277344 248.160156 127.863281 248.144531 126.445312 Z M 248.144531 126.445312 " fill-opacity="1" fill-rule="nonzero"/><path fill="#000000" d="M 233.242188 108.691406 C 234.605469 115.515625 237.769531 122.210938 242.414062 127.289062 L 298.578125 102.609375 C 299.554688 93.882812 296.316406 86.171875 289.433594 83.390625 Z M 233.242188 108.691406 " fill-opacity="1" fill-rule="nonzero"/><path fill="#000000" d="M 234.082031 114.941406 L 293.257812 87.992188 " fill-opacity="1" fill-rule="nonzero"/><g clip-path="url(#22d8bfe9d1)"><path stroke-linecap="butt" transform="matrix(0.789618, 0, 0, 0.790724, 0.99916, 0.0795156)" fill="none" stroke-linejoin="miter" d="M 295.184491 145.261665 L 370.126818 111.179966 " stroke="#ffffff" stroke-width="2.179" stroke-opacity="1" stroke-miterlimit="10"/></g><path fill="#000000" d="M 235.953125 119.132812 L 295.914062 92.453125 " fill-opacity="1" fill-rule="nonzero"/><g clip-path="url(#9d6cb36f96)"><path stroke-linecap="butt" transform="matrix(0.789618, 0, 0, 0.790724, 0.99916, 0.0795156)" fill="none" stroke-linejoin="miter" d="M 297.554111 150.562384 L 373.490788 116.821552 " stroke="#ffffff" stroke-width="5.448" stroke-opacity="1" stroke-miterlimit="10"/></g><g clip-path="url(#dd0b89b384)"><path stroke-linecap="butt" transform="matrix(0.789618, 0, 0, 0.790724, 0.99916, 0.0795156)" fill="none" stroke-linejoin="miter" d="M 363.913367 132.234641 L 305.894778 158.278809 C 304.400779 158.950662 302.605013 158.619676 301.526564 157.379712 C 298.25164 153.600541 295.896861 146.57573 294.729365 142.495213 C 294.209929 140.687139 295.100391 138.780264 296.812058 137.994789 L 364.972029 107.020408 C 364.972029 107.020408 376.419421 112.45451 374.51482 127.161166 Z M 363.913367 132.234641 " stroke="#ffffff" stroke-width="1" stroke-opacity="1" stroke-miterlimit="10"/></g><path fill="#000000" d="M 164.972656 77.777344 C 164.964844 77.5625 164.964844 77.453125 164.964844 77.453125 C 165.035156 77.609375 165.035156 77.722656 164.972656 77.777344 Z M 164.972656 77.777344 " fill-opacity="1" fill-rule="nonzero"/><path fill="#ffffff" d="M 172.453125 82.164062 C 169.875 87.324219 167.027344 90.628906 164.402344 98.253906 C 160.003906 111.019531 158.761719 124.371094 157.480469 137.816406 C 160.261719 135.738281 163.472656 134.234375 166.847656 133.429688 C 166.289062 125.285156 165.777344 117.121094 166.117188 108.964844 C 166.453125 100.808594 169.679688 89.839844 172.453125 82.164062 " fill-opacity="1" fill-rule="nonzero"/><path fill="#ffffff" d="M 143.324219 119.898438 C 138.332031 111.25 128.5 105.632812 118.527344 105.722656 C 119.648438 106.84375 120.386719 107.652344 121.507812 108.773438 C 123.035156 110.300781 124.59375 111.851562 126.515625 112.828125 C 127.886719 113.53125 129.394531 113.910156 130.886719 114.289062 C 132.878906 114.792969 134.867188 115.292969 136.859375 115.796875 C 139.195312 116.386719 142.066406 118.503906 143.324219 119.898438 Z M 143.324219 119.898438 " fill-opacity="1" fill-rule="nonzero"/></svg>