
<svg xmlns="http://www.w3.org/2000/svg" xmlns:xlink="http://www.w3.org/1999/xlink" width="500" zoomAndPan="magnify" viewBox="0 0 375 374.999991" height="500" preserveAspectRatio="xMidYMid meet" version="1.0"><defs><clipPath id="c5809ecff7"><path d="M 41.140625 58.574219 L 246 58.574219 L 246 182 L 41.140625 182 Z M 41.140625 58.574219 " clip-rule="nonzero"/></clipPath><clipPath id="8465c146de"><path d="M 41.140625 148 L 341.140625 148 L 341.140625 316.574219 L 41.140625 316.574219 Z M 41.140625 148 " clip-rule="nonzero"/></clipPath></defs><path fill="#630000" d="M 228.554688 182.890625 L 262.601562 115.421875 C 260.921875 111.933594 259.925781 108.078125 259.925781 103.96875 C 259.925781 89.589844 271.5625 77.886719 286.003906 77.886719 C 300.382812 77.886719 312.082031 89.527344 312.082031 103.96875 C 312.082031 116.789062 302.871094 127.371094 290.671875 129.613281 L 265.589844 179.28125 C 254.570312 181.023438 240.941406 182.144531 228.554688 182.890625 Z M 228.554688 182.890625 " fill-opacity="1" fill-rule="nonzero"/><g clip-path="url(#c5809ecff7)"><path fill="#6d123f" d="M 171.726562 166.398438 C 159.339844 126.875 124.796875 100.730469 94.917969 90.773438 C 126.601562 108.699219 162.640625 155.566406 165.875 181.273438 C 137.058594 159.925781 89.503906 165.527344 70.957031 128.925781 C 63.113281 113.492188 61.804688 97.804688 54.960938 81.996094 C 48.796875 67.804688 41.140625 58.65625 41.140625 58.65625 C 41.140625 58.65625 82.71875 61.769531 112.535156 75.398438 C 178.882812 105.648438 171.726562 166.398438 171.726562 166.398438 Z M 179.132812 181.023438 C 211.8125 173.058594 219.09375 145.359375 224.136719 127.308594 C 227.871094 113.800781 233.097656 105.523438 245.734375 99.175781 C 225.007812 102.972656 207.265625 108.949219 194.070312 121.519531 C 187.847656 127.496094 183.304688 134.652344 180.503906 143.117188 C 177.765625 151.398438 179.132812 181.023438 179.132812 181.023438 Z M 179.132812 181.023438 " fill-opacity="1" fill-rule="nonzero"/></g><g clip-path="url(#8465c146de)"><path fill="#630000" d="M 41.140625 170.007812 C 41.578125 250.921875 108.613281 316.339844 191.269531 316.339844 C 273.867188 316.339844 340.902344 250.921875 341.398438 170.070312 C 341.398438 170.070312 341.398438 170.070312 341.398438 170.007812 C 341.398438 170.007812 341.398438 169.945312 341.398438 169.945312 C 341.273438 159.925781 324.28125 152.828125 296.894531 148.160156 C 311.835938 154.632812 320.671875 161.730469 320.671875 167.703125 C 320.671875 183.015625 262.726562 195.464844 191.269531 195.464844 C 119.816406 195.464844 61.867188 183.015625 61.867188 167.703125 C 61.867188 162.539062 68.402344 156.5625 79.792969 150.898438 C 79.296875 150.464844 78.859375 149.964844 78.425781 149.53125 C 55.332031 154.136719 41.265625 160.859375 41.140625 169.945312 C 41.140625 169.945312 41.140625 169.945312 41.140625 170.007812 Z M 41.140625 170.007812 " fill-opacity="1" fill-rule="nonzero"/></g></svg>